<svg width="40" height="39" viewBox="0 0 40 39" fill="none" xmlns="http://www.w3.org/2000/svg">
<path d="M19.9999 4.00488C25.0874 4.00488 25.7811 4.00488 27.8624 4.00488C29.7124 4.00488 30.6374 4.46738 31.3311 4.69863C32.2561 5.16113 32.9499 5.39238 33.6436 6.08613C34.3374 6.77988 34.7999 7.47363 35.0311 8.39863C35.2624 9.09238 35.4936 10.0174 35.7249 11.8674C35.7249 13.9486 35.7249 14.4111 35.7249 19.7299C35.7249 25.0486 35.7249 25.5111 35.7249 27.5924C35.7249 29.4424 35.2624 30.3674 35.0311 31.0611C34.5687 31.9861 34.3374 32.6799 33.6436 33.3736C32.9499 34.0674 32.2561 34.5299 31.3311 34.7611C30.6374 34.9924 29.7124 35.2236 27.8624 35.4549C25.7811 35.4549 25.3186 35.4549 19.9999 35.4549C14.6812 35.4549 14.2187 35.4549 12.1374 35.4549C10.2874 35.4549 9.3624 34.9924 8.66865 34.7611C7.74365 34.2986 7.0499 34.0674 6.35615 33.3736C5.6624 32.6799 5.1999 31.9861 4.96865 31.0611C4.7374 30.3674 4.50615 29.4424 4.2749 27.5924C4.2749 25.5111 4.2749 25.0486 4.2749 19.7299C4.2749 14.4111 4.2749 13.9486 4.2749 11.8674C4.2749 10.0174 4.7374 9.09238 4.96865 8.39863C5.43115 7.47363 5.6624 6.77988 6.35615 6.08613C7.0499 5.39238 7.74365 4.92988 8.66865 4.69863C9.3624 4.46738 10.2874 4.23613 12.1374 4.00488C14.2187 4.00488 14.9124 4.00488 19.9999 4.00488ZM19.9999 0.536133C14.6812 0.536133 14.2187 0.536133 12.1374 0.536133C10.0562 0.536133 8.66865 0.998633 7.5124 1.46113C6.35615 1.92363 5.1999 2.61738 4.04365 3.77363C2.8874 4.92988 2.4249 5.85488 1.73115 7.24238C1.26865 8.39863 1.0374 9.78613 0.806152 11.8674C0.806152 13.9486 0.806152 14.6424 0.806152 19.7299C0.806152 25.0486 0.806152 25.5111 0.806152 27.5924C0.806152 29.6736 1.26865 31.0611 1.73115 32.2174C2.19365 33.3736 2.8874 34.5299 4.04365 35.6861C5.1999 36.8424 6.1249 37.3049 7.5124 37.9986C8.66865 38.4611 10.0562 38.6924 12.1374 38.9236C14.2187 38.9236 14.9124 38.9236 19.9999 38.9236C25.0874 38.9236 25.7811 38.9236 27.8624 38.9236C29.9436 38.9236 31.3311 38.4611 32.4874 37.9986C33.6436 37.5361 34.7999 36.8424 35.9561 35.6861C37.1124 34.5299 37.5749 33.6049 38.2686 32.2174C38.7311 31.0611 38.9624 29.6736 39.1936 27.5924C39.1936 25.5111 39.1936 24.8174 39.1936 19.7299C39.1936 14.6424 39.1936 13.9486 39.1936 11.8674C39.1936 9.78613 38.7311 8.39863 38.2686 7.24238C37.8061 6.08613 37.1124 4.92988 35.9561 3.77363C34.7999 2.61738 33.8749 2.15488 32.4874 1.46113C31.3311 0.998633 29.9436 0.767383 27.8624 0.536133C25.7811 0.536133 25.3186 0.536133 19.9999 0.536133Z" fill="#101010"/>
<path d="M19.9999 9.78613C14.4499 9.78613 10.0562 14.1799 10.0562 19.7299C10.0562 25.2799 14.4499 29.6736 19.9999 29.6736C25.5499 29.6736 29.9436 25.2799 29.9436 19.7299C29.9436 14.1799 25.5499 9.78613 19.9999 9.78613ZM19.9999 26.2049C16.5311 26.2049 13.5249 23.4299 13.5249 19.7299C13.5249 16.2611 16.2999 13.2549 19.9999 13.2549C23.4686 13.2549 26.4749 16.0299 26.4749 19.7299C26.4749 23.1986 23.4686 26.2049 19.9999 26.2049Z" fill="#101010"/>
<path d="M30.1744 11.8663C31.4512 11.8663 32.4864 10.8312 32.4864 9.55425C32.4864 8.27734 31.4512 7.24219 30.1744 7.24219C28.8975 7.24219 27.8623 8.27734 27.8623 9.55425C27.8623 10.8312 28.8975 11.8663 30.1744 11.8663Z" fill="#101010"/>
</svg>
