<svg width="37" height="31" viewBox="0 0 37 31" fill="none" xmlns="http://www.w3.org/2000/svg">
<path d="M2.54356 13.2004C12.4757 8.87322 19.0985 6.0204 22.4124 4.64205C31.8739 0.706672 33.8399 0.023035 35.1213 0.000218285C35.4034 -0.00449921 36.0334 0.0653384 36.4416 0.396581C36.7863 0.676239 36.8813 1.05407 36.9266 1.31924C36.9719 1.5844 37.0284 2.18846 36.9836 2.66046C36.4709 8.04781 34.2521 21.1211 33.1236 27.1549C32.646 29.7082 31.7056 30.5642 30.7951 30.648C28.8168 30.8299 27.3143 29.3404 25.398 28.0842C22.3995 26.1186 20.7055 24.8951 17.7948 22.977C14.431 20.7604 16.6114 19.5419 18.5287 17.551C19.0303 17.0299 27.7475 9.10077 27.9162 8.38143C27.9375 8.29139 27.9569 7.95623 27.7577 7.77925C27.5585 7.60205 27.2647 7.66258 27.0525 7.7108C26.7516 7.77894 21.9613 10.9452 12.6815 17.2093C11.3218 18.143 10.0902 18.5981 8.98674 18.574C7.77027 18.5478 5.43026 17.8864 3.69071 17.3209C1.55707 16.6272 -0.138698 16.2606 0.00896327 15.0827C0.0858616 14.4692 0.930726 13.8417 2.54356 13.2004Z" fill="#101010"/>
</svg>
