<svg width="37" height="37" viewBox="0 0 37 37" fill="none" xmlns="http://www.w3.org/2000/svg">
<path fill-rule="evenodd" clip-rule="evenodd" d="M31.45 5.31875C27.9813 1.85 23.3562 0 18.5 0C8.325 0 0 8.325 0 18.5C0 21.7375 0.924999 24.975 2.54375 27.75L0 37L9.71253 34.4562C12.4875 35.8437 15.4937 36.7687 18.5 36.7687C28.675 36.7687 37 28.4437 37 18.2688C37 13.4125 34.9188 8.7875 31.45 5.31875ZM18.5 33.7625C15.725 33.7625 12.95 33.0687 10.6375 31.6812L10.175 31.45L4.39375 33.0688L6.0125 27.5187L5.55 26.825C3.93125 24.2812 3.2375 21.5062 3.2375 18.7312C3.2375 10.4062 10.175 3.46875 18.5 3.46875C22.6625 3.46875 26.3625 5.0875 29.3687 7.8625C32.375 10.8688 33.7625 14.5687 33.7625 18.7312C33.7625 26.825 27.0562 33.7625 18.5 33.7625ZM26.825 22.2C26.3625 21.9687 24.05 20.8125 23.5875 20.8125C23.125 20.5812 22.8938 20.5812 22.6625 21.0437C22.4313 21.5062 21.5062 22.4312 21.275 22.8937C21.0437 23.125 20.8125 23.125 20.35 23.125C19.8875 22.8937 18.5 22.4312 16.65 20.8125C15.2625 19.6562 14.3375 18.0375 14.1062 17.575C13.875 17.1125 14.1062 16.8812 14.3375 16.65C14.5687 16.4187 14.8 16.1875 15.0312 15.9563C15.2625 15.725 15.2625 15.4937 15.4937 15.2625C15.725 15.0312 15.4937 14.8 15.4937 14.5688C15.4937 14.3375 14.5687 12.025 14.1062 11.1C13.875 10.4063 13.4125 10.4062 13.1812 10.4062C12.95 10.4062 12.7187 10.4062 12.2562 10.4062C12.025 10.4062 11.5625 10.4062 11.1 10.8687C10.6375 11.3312 9.48125 12.4875 9.48125 14.8C9.48125 17.1125 11.1 19.1937 11.3313 19.6562C11.5625 19.8875 14.5688 24.7437 19.1938 26.5937C23.125 28.2125 23.8187 27.75 24.7437 27.75C25.6687 27.75 27.5187 26.5937 27.75 25.6687C28.2125 24.5125 28.2125 23.5875 27.9812 23.5875C27.75 22.4312 27.2875 22.4312 26.825 22.2Z" fill="#101010"/>
</svg>
